<svg xmlns="http://www.w3.org/2000/svg" height="800" width="1200" viewBox="-27.74085 -7.67025 240.4207 46.0215"><path d="M181.121 9.692h-.477V7.306h-.476v-.238h1.907l-.237.238h-.717zm3.339 0V7.544c0 .239-.238.239-.238.477l-.477 1.672h-.478l-.238-1.672c-.239 0-.239-.238-.239-.477v.477l-.238 1.672h-.477l.477-2.624h.478l.478 1.429v.479s.238-.24.238-.479l.477-1.429h.478l.238 2.624h-.479zm-134.775.716h-6.68v2.624h5.725v3.338h-5.725v2.862h6.68v3.34H37.519V7.068h12.166zm11.449 4.769c1.909 0 3.34.954 3.34 2.386 0 1.432-1.431 2.385-3.34 2.385-1.908 0-3.101-.953-3.101-2.385s1.193-2.386 3.101-2.386zm3.34-1.431c-1.67-1.429-2.863-1.907-5.01-1.907-3.577 0-6.679 2.384-6.679 5.485 0 3.101 3.102 5.486 6.679 5.486 2.146 0 3.34-.478 5.01-1.67v1.432h5.01V12.078h-5.01zm9.064-1.668h5.248v1.431c.954-1.192 2.147-1.67 3.579-1.67h1.669v3.815c-.716-.239-.954-.239-1.669-.239-2.387 0-3.579.954-3.579 3.101v4.056h-5.248zm13.119 3.099v-3.099h2.148v-5.01h5.248v5.01h3.1v3.099h-3.1v7.395h-5.248v-7.395zm13.837-8.109h5.009v6.202c1.192-.954 2.624-1.432 4.532-1.432 2.624 0 4.533 1.193 5.248 2.861 0 .477.238.715.238 2.385v5.487h-5.248v-5.964c0-.954-.953-1.908-2.386-1.908-1.431 0-2.385.954-2.385 2.385v5.487h-5.009V7.068zm24.809 12.164h6.201v3.34h-11.688V7.068h5.487zm9.301-7.154h5.248v10.495h-5.248zm5.487-3.342c0 1.194-1.43 2.148-2.861 2.148-1.67 0-2.863-.955-2.863-2.148s1.193-2.146 2.863-2.146 2.861.953 2.861 2.146zm3.578 3.342h5.248v1.193c1.193-.954 2.625-1.432 4.533-1.432 2.385 0 4.532 1.193 5.01 2.861.238.477.238.715.238 2.385v5.487h-5.009v-5.964c0-.954-.955-1.908-2.387-1.908-1.431 0-2.386.954-2.386 2.385v5.487h-5.248V12.078zm24.333 4.053l4.293-3.815h6.68l-6.203 5.008 6.918 5.248h-6.918l-4.77-4.295v4.295h-5.249V7.068h5.249z" fill="#222121" clip-rule="evenodd" fill-rule="evenodd"/><path d="M30.86 4.383c0 2.256-2.455 5.603-4.45 7.944-.003-.022-.009-.048-.012-.071 0-.088-.085-.258-.085-.345 0-.17 0-.255-.088-.343 0-.17 0-.255-.085-.428v-.172c3.256-3.941 4.114-6.6 3.429-7.37-.654-.818-2.947-.388-6.064 1.144a.485.485 0 01-.02-.028c-.15.074-.235.147-.365.224-.021.009-.043.02-.065.031-.073 0-.085 0-.082.06-.003.008-.003.016-.003.028-.173 0-.258.085-.428.17l-.088.085a.1484.1484 0 00-.028.017c-.093.045-.189.093-.282.141h-.003a.4368.4368 0 01-.113.014c0 .02-.006.037-.015.048l-.003.003c-.022.011-.045.022-.067.034-.088.042-.173.088-.258.142-.006.003-.012.006-.018.011-.866.478-1.798 1.028-2.726 1.648-.17-.258-.343-.6-.601-.858 5.4-3.513 10.372-5.569 12-3.598.362.396.52.897.52 1.469z" fill="#222121"/><path d="M26.398 12.256c.003.022.009.048.012.071-.003.005-.009.008-.012.014z" fill="#222121"/><path d="M26.313 11.911c0 .087.085.257.085.345v.085c.003-.006.009-.009.012-.014.164 1.005.246 2.007.246 3.012 0 8.485-5.057 15.342-11.229 15.342-1.37 0-2.701-.343-3.933-.963-1.231-.622-2.367-1.52-3.353-2.636-.173-.342-.43-.6-.6-.857-.644-.858-1.201-1.82-1.662-2.871-.459-1.05-.824-2.186-1.082-3.386.601-.686 1.286-1.455 1.971-2.229.773 5.999 4.371 10.629 8.658 10.629 4.887 0 8.827-5.83 8.827-13.03 0-3.683-1.112-7.112-2.828-9.428.082-.079.161-.142.24-.19.006-.005.012-.008.018-.011.088-.048.173-.096.258-.142 0 0 .045 0 .067-.034l.003-.003c.043-.02.085-.04.128-.063h.003c.096-.025.169-.082.282-.141.182-.091.363-.182.544-.272 0-.011 0-.02.003-.028.017-.06.082-.06.082-.06.022-.011.045-.022.065-.031.13-.068.258-.133.385-.195 1.274 1.792 2.211 4.009 2.636 6.398.085.173.085.258.085.428.089.09.089.175.089.345z" fill="#F26722"/><path d="M23.485 4.714c.005.009.014.02.02.028-.127.063-.255.128-.385.196.13-.077.215-.15.365-.224zm-.43.255s-.065 0-.082.06c-.003-.06.008-.06.082-.06zm-.085.088c-.181.09-.362.181-.544.272.009-.006.018-.012.028-.017l.088-.085c.17-.085.255-.17.428-.17zm-.829.413c-.043.023-.085.042-.128.063a.0763.0763 0 00.015-.048.4978.4978 0 00.113-.015zm-.199.099c-.085.045-.17.094-.258.142.086-.054.17-.1.258-.142z" fill="#222121"/><path d="M21.942 2.914c-.686.342-1.373.77-2.144 1.2-1.285-1.115-2.743-1.716-4.371-1.716-4.629 0-8.485 5.399-8.743 12.086-.857.855-1.628 1.713-2.397 2.486v-1.631C4.287 6.942 9.256 0 15.428 0c2.485 0 4.714 1.113 6.514 2.914z" fill="#F26722"/><path d="M15.255 7.712c.942 0 1.716.773 1.716 1.715 0 .943-.773 1.713-1.716 1.713-.343 0-.686-.085-1.028-.342-.515.427-1.112.943-1.628 1.37-2.143 1.801-4.113 3.687-5.829 5.572-.685.773-1.37 1.543-1.971 2.229-2.228 2.658-3.598 5.057-3.686 6.515-.085.427 0 .77.172.942.188.249.566.396 1.155.396 1.031 0 2.701-.45 5.103-1.597.17.258.427.516.6.857-2.743 1.37-6.257 2.656-7.63 1.028C.085 27.684 0 27.083 0 26.398c.343-3.259 5.057-9.258 11.914-15 .601-.515 1.112-.943 1.713-1.458-.085-.17-.085-.343-.085-.513 0-.942.77-1.715 1.713-1.715z" fill="#222121"/></svg>