<?xml version="1.0" encoding="UTF-8"?>
<svg xmlns="http://www.w3.org/2000/svg" id="katman_1" data-name="katman 1" version="1.1" viewBox="0 0 156.7 77.7">
  <defs>
    <style>
      .cls-1 {
        fill: #000;
        stroke-width: 0px;
      }
    </style>
  </defs>
  <path class="cls-1" d="M134.2,32.9h-.5v-2.4h-.9v-.4h2.3v.4h-.9v2.4Z"></path>
  <path class="cls-1" d="M138.4,32.9h-.5v-2.1l-.9,2.1h-.2l-.9-2.1v2.1h-.5v-2.9h.7l.8,1.9.8-1.9h.7v2.9Z"></path>
  <path class="cls-1" d="M120.7,41.6h-5c-.4,0-.5,0-.4.5.5,2,2,3.7,4.2,4,1.7.2,3.6-.7,4.4-2.3.1-.3.3-.4.6-.3h.1c1,.3,1,.3.5,1.2-.8,1.5-2.2,2.3-3.9,2.7-2.7.6-5.1-.8-6.3-2.8-2-3-1.2-6.7.8-8.8,2.3-2.5,6.5-2.3,8.8.3,1.3,1.5,1.7,3.2,1.7,5,0,.4-.2.3-.5.3-1.7,0-3.3,0-5,0ZM119.9,40.1h4.2c.5,0,.6,0,.4-.6-.2-.6-.4-1.1-.7-1.7-1-1.7-2.9-2.6-4.8-2.2-1.8.3-3.3,2-3.7,4,0,.4,0,.5.4.5,1.4,0,2.8,0,4.2,0h0Z"></path>
  <path class="cls-1" d="M89.8,47.3c-.9,0-1.1,0-1.9-1.1,0,0-.2,0-.3.1-1.2.8-2.6,1.3-4,1.3-2.9,0-4.9-2.1-4.5-4.9.2-1.1.9-1.9,1.8-2.5,1.1-.6,2.4-.9,3.7-.8,1,0,2,.2,3,.3.4,0,.5,0,.5-.4,0-.6-.1-1.2-.3-1.8-.6-1.7-2.4-2.5-4.2-1.9-.9.3-1.7.8-2.5,1.2-.2,0-.3.2-.5.3-.3-.4-.6-.7-.9-1.2.4-.3.7-.5,1.1-.7,1.2-.7,2.4-1.2,3.8-1.2,2.9,0,4.8,1.9,4.9,4.8,0,2,0,4.1,0,6.1s-.1.7.3.9c0,0,0,.2,0,.2,0,.3,0,.7,0,1.1ZM88,42.7c0-.3,0-.5,0-.7,0-.4-.1-.7-.6-.7-.9-.1-1.8-.3-2.7-.4-1.1,0-2.1.1-3.1.6-.8.4-1.3,1-1.3,2,0,1.2,1,2.3,2.3,2.6,1.2.2,2.4,0,3.5-.6,1.1-.6,2-1.4,1.8-2.7Z"></path>
  <path class="cls-1" d="M91.1,45.1c.3-.2.5-.4.7-.7.1-.2.4-.2.5,0,0,0,0,0,0,0,.8.8,1.8,1.3,2.8,1.5,1.2.3,2.6,0,3.7-.6.7-.4,1.1-1.1,1-1.9,0-.8-.6-1.4-1.3-1.6-.7-.2-1.5-.3-2.2-.4-.8-.1-1.7-.1-2.5-.4-1.6-.4-2.5-1.6-2.5-3.3,0-1.4.7-2.6,2-3.2,1.6-.7,3.3-.8,5-.3,1.1.3,1.8,1.1,2.4,2.1-.4.2-.8.4-1.2.5,0,0-.2,0-.2,0-.5-1.1-1.5-1.3-2.5-1.4-.9-.1-1.8,0-2.7.4-.8.4-1.3,1-1.3,1.8,0,.9.5,1.7,1.3,1.9.6.2,1.2.3,1.8.3,1,.1,2,.2,2.9.4,1.4.4,2.3,1.3,2.5,2.8.2,1.6-.5,2.8-2,3.6-2.9,1.4-6.3.6-8.3-1.8Z"></path>
  <path class="cls-1" d="M102.4,45.1c.3-.3.6-.5.9-.8,0,0,.3,0,.4.1.8.8,1.8,1.3,2.8,1.5,1.1.2,2.3.1,3.3-.3,1.1-.5,1.6-1.4,1.3-2.4-.1-.5-.5-.9-.9-1.2-.8-.4-1.6-.6-2.5-.5-1,0-1.9-.1-2.8-.5-1.2-.5-2-1.4-2.1-2.7-.2-1.5.3-2.7,1.6-3.5,1.6-1,5.1-1.1,6.5.2.4.4.8.9,1.3,1.4-.6.2-1,.4-1.5.7-.4-1-1.1-1.4-2.1-1.5-1.3-.2-2.5-.1-3.6.6s-1.1,2.5,0,3.3c.6.4,1.4.5,2.1.6.9,0,1.9.2,2.8.4,1.4.4,2.4,1.2,2.7,2.7.3,2.1-.9,3.4-2.5,4-2.7,1-5.8.3-7.7-1.9,0,0,0,0,0-.1Z"></path>
  <path class="cls-1" d="M128.5,35.8h-1.7v-1.6h1.7v-4.2h1.6v4.1h2.9v1.6h-2.8v9c0,.8.4,1.2,1.2,1.1.5,0,.9-.2,1.3-.4.2,0,.4-.2.6-.3l.8,1.2c-.2.2-.4.4-.7.6-.9.5-1.9.7-2.9.6-1.2-.2-2.1-1.2-2.1-2.5v-8.6c0-.2,0-.3,0-.6Z"></path>
  <path class="cls-1" d="M30.6,34.2h1.6v1.7c1.2-1.3,2.6-2,4.3-1.9,1.7,0,3,.9,3.7,2.5.3-.4.6-.7,1-1,1.2-1.2,3-1.7,4.6-1.4,1.5.3,2.4,1.3,2.8,2.7.3.9.4,1.8.4,2.7,0,2.5,0,5.1,0,7.6v.2h-1.6v-.5c0-2.3,0-4.5,0-6.8,0-.7,0-1.4-.2-2.1-.3-1.9-1.6-2.7-3.5-2.2-1,.3-1.9,1-2.5,2-.5.7-.7,1.6-.7,2.4,0,2.2,0,4.5,0,6.7v.5h-1.6v-.5c0-2.3,0-4.6,0-6.9,0-.7,0-1.4-.2-2.1-.3-1.8-1.4-2.6-3.4-2.1-1.7.4-3.2,2.4-3.2,4.1v7.5h-1.6c0-4.4,0-8.8,0-13.2Z"></path>
  <path class="cls-1" d="M52,37.3c-.3-.4-.6-.9-1-1.3,1.8-1.3,3.6-2.3,5.8-2,2.4.4,4,2.1,4.1,4.6,0,2.2,0,4.3,0,6.5v.6c.1,0,.2,0,.4.1v1.5c-.9.3-1.6-.1-2-1.1,0,0-.1,0-.2,0-1.3.9-3,1.4-4.6,1.3-2.7,0-4.7-2.5-4.2-5.1.2-1,.9-1.9,1.8-2.3,1.2-.7,2.5-1,3.9-.9,1.1,0,2.2.2,3.3.3.4-2.7-1.6-4.6-4.3-3.9-.8.2-1.6.7-2.4,1.1-.2.1-.5.3-.7.5ZM59.4,42.6c0-.2,0-.4,0-.6,0-.4-.1-.5-.5-.6-1.2-.3-2.3-.4-3.5-.4-.8,0-1.6.2-2.3.6-.7.3-1.1,1-1.1,1.8,0,1.2.9,2.3,2.1,2.5,1.2.2,2.4,0,3.4-.5,1.2-.5,2-1.3,1.8-2.8Z"></path>
  <path class="cls-1" d="M28.4,36.6c-.5.2-1,.4-1.5.7,0,0-.1-.2-.2-.3-.2-.5-.7-.9-1.2-1.1-1.2-.4-2.4-.4-3.6,0-1,.4-1.4,1-1.4,1.9,0,.9.6,1.7,1.5,1.9.6.2,1.2.2,1.8.3,1,0,2,.1,3,.5,1.3.6,2.1,1.5,2.2,3,0,1.5-.6,2.7-2,3.4-2.3,1.2-5.5.9-7.6-.8-.3-.3-.7-.6-1-.9l1.2-1.1c.2.2.4.4.6.6,1.7,1.4,3.5,1.7,5.6,1,.8-.3,1.4-.8,1.5-1.7.1-.8-.3-1.6-1-1.9-.8-.4-1.7-.5-2.6-.5-.9,0-1.9-.1-2.7-.5-1.3-.5-2.1-1.7-2.2-3.1,0-1.5.5-2.7,1.8-3.4,1.7-.9,3.6-1,5.4-.3,1.1.4,1.8,1.2,2.3,2.2Z"></path>
  <path class="cls-1" d="M72.2,35.8h-1.7v-1.6h1.7v-4.2h1.6v4.1h2.9v1.6h-2.9v9c0,.8.4,1.2,1.2,1.1.5,0,.9-.2,1.3-.4.2,0,.4-.2.6-.3l.8,1.2c-.2.2-.4.4-.7.6-.9.5-1.9.7-2.9.6-1.2-.2-2.1-1.2-2.1-2.5v-8.6c0-.2,0-.3,0-.6Z"></path>
  <path class="cls-1" d="M64.9,35.8c1.2-1.2,2.9-1.8,4.7-1.7v1.6c-.4,0-.8,0-1.1.1-1.8.3-3,1.6-3.5,3.3,0,.2,0,.3,0,.5v7.7h-1.6v-13.2h1.6v1.6Z"></path>
</svg>
